# xmcd
#
# Track frame offsets:
#	150
#	11205
#	26568
#	37295
#	49786
#	61105
#	74160
#	85304
#	101037
#	112780
#	124999
#	138289
#
# Disc length: 1993 seconds
#
# Revision: 0
# Processed by: cddbd v1.5.2PL0 Copyright (c) Steve Scherf et al.
# Submitted via: EasyCDDAExtractor 16.0.6.1
#
DISCID=ac07c70c
DTITLE=Θάλεια - Θάλεια-LP 1975 Τ. Μουσαφίρη
DYEAR=1975
DGENRE=Λαϊκή
TTITLE0=Αβέρτα
TTITLE1=Μη μιλάς
TTITLE2=Ψιλολόϊ και γυρολόϊ
TTITLE3=Το ποδήλατο
TTITLE4=Οι σιδερένιες οι κλωστές
TTITLE5=Τι κόσμος είν' αυτός
TTITLE6=Στο πι και φι
TTITLE7=Αυτός ο άγνωστος
TTITLE8=Το Γιουσουρούμ (Ήσουν φτηνός)
TTITLE9=Χαλάσματα, φαντάσματα
TTITLE10=Γυναίκες, γυναίκες
TTITLE11=Αβέρτα [ορχηστρικό]
EXTD=
EXTT0=
EXTT1=
EXTT2=
EXTT3=
EXTT4=
EXTT5=
EXTT6=
EXTT7=
EXTT8=
EXTT9=
EXTT10=
EXTT11=
PLAYORDER=
